<svg xmlns="http://www.w3.org/2000/svg" viewBox="0 0 256 256" role="img" aria-labelledby="title desc">
  <title id="title">에드스파크 icon</title>
  <desc id="desc">Navy rounded icon with 에드스파크 A symbol.</desc>
  <defs>
    <linearGradient id="bg" x1="26" y1="20" x2="226" y2="236" gradientUnits="userSpaceOnUse">
      <stop offset="0" stop-color="#061B3D"/>
      <stop offset="1" stop-color="#073466"/>
    </linearGradient>
    <linearGradient id="curveBlue" x1="50" y1="157" x2="190" y2="96" gradientUnits="userSpaceOnUse">
      <stop offset="0" stop-color="#8FD3FF"/>
      <stop offset="0.48" stop-color="#2494FF"/>
      <stop offset="1" stop-color="#58A6FF"/>
    </linearGradient>
    <linearGradient id="legBlue" x1="118" y1="82" x2="170" y2="174" gradientUnits="userSpaceOnUse">
      <stop offset="0" stop-color="#58A6FF"/>
      <stop offset="1" stop-color="#0B7CFF"/>
    </linearGradient>
  </defs>
  <rect x="25" y="25" width="206" height="206" rx="38" fill="url(#bg)"/>
  <g transform="translate(38 42) scale(0.72)">
    <path d="M118 0L42 190H86L121 100L153 190H200L125 0H118Z" fill="#FFFFFF"/>
    <path d="M151 104L196 190H238L184 82L151 104Z" fill="url(#legBlue)"/>
    <path d="M34 190C83 141 143 113 248 90" fill="none" stroke="url(#curveBlue)" stroke-width="13" stroke-linecap="round"/>
    <path d="M18 216C73 157 142 122 256 98" fill="none" stroke="#8FD3FF" stroke-width="8" stroke-linecap="round" opacity="0.9"/>
    <path d="M279 70L286 91L307 98L286 105L279 126L272 105L251 98L272 91Z" fill="#8FD3FF"/>
  </g>
</svg>
